<svg width="1024" height="1024" viewBox="0 0 1024 1024" fill="none" xmlns="http://www.w3.org/2000/svg">
  <defs>
    <linearGradient id="bg" x1="112" y1="128" x2="896" y2="896" gradientUnits="userSpaceOnUse">
      <stop stop-color="#0F6BFF"/>
      <stop offset="1" stop-color="#3CB6FF"/>
    </linearGradient>
  </defs>
  <rect x="64" y="64" width="896" height="896" rx="224" fill="url(#bg)"/>
  <rect x="120" y="120" width="784" height="784" rx="184" fill="white" fill-opacity="0.14"/>
  <path d="M524.34 239C386.592 239 285 339.592 285 477.34C285 615.088 386.592 716.68 524.34 716.68C592.817 716.68 656.376 691.56 702.411 646.155L770.773 714.517C783.565 727.309 804.301 727.309 817.093 714.517C829.885 701.726 829.885 680.989 817.093 668.198L749.257 600.362C793.889 553.937 818.681 491.195 818.681 422.659C818.681 284.912 717.089 184.32 579.341 184.32C441.593 184.32 340.001 284.912 340.001 422.659C340.001 560.407 441.593 662 579.341 662C629.822 662 676.814 648.562 716.494 625.406C663.243 682.262 596.533 716.68 524.34 716.68ZM579.341 252.34C680.355 252.34 750.661 322.646 750.661 423.659C750.661 524.673 680.355 594.98 579.341 594.98C478.328 594.98 408.021 524.673 408.021 423.659C408.021 322.646 478.328 252.34 579.341 252.34Z" fill="white"/>
  <circle cx="722" cy="682" r="42" fill="white"/>
</svg>
